<svg xmlns="http://www.w3.org/2000/svg" xmlns:xlink="http://www.w3.org/1999/xlink" viewBox="0 0 142 38"><defs><style>.a{fill:none;}.b{clip-path:url(#a);}.c{fill:#212934;}.d{fill:#e11e19;fill-rule:evenodd;}</style><clipPath id="a"><rect class="a" width="142" height="38"/></clipPath></defs><g class="b"><path class="c" d="M49.31,28.23a11.87,11.87,0,0,1-5.55,1.17,8.94,8.94,0,0,1-6.86-2.75,10.22,10.22,0,0,1-2.57-7.24,10.69,10.69,0,0,1,2.89-7.79,9.89,9.89,0,0,1,7.35-3,11.82,11.82,0,0,1,4.74.82V12a9.65,9.65,0,0,0-4.76-1.21,7.3,7.3,0,0,0-5.61,2.31,8.72,8.72,0,0,0-2.15,6.18,8.27,8.27,0,0,0,2,5.84,6.85,6.85,0,0,0,5.27,2.18A10,10,0,0,0,49.31,26Z"/><path class="c" d="M56.46,29.07H54.11V9h2.35Z"/><path class="c" d="M62.46,29.07V9h5.71a6.24,6.24,0,0,1,4.13,1.28,4.1,4.1,0,0,1,1.53,3.31,4.84,4.84,0,0,1-3.48,4.76v.06a5.11,5.11,0,0,1,3.25,1.53,4.75,4.75,0,0,1,1.22,3.37A5.24,5.24,0,0,1,73,27.47a6.84,6.84,0,0,1-4.66,1.6Zm2.35-18V17.6h2.41a4.58,4.58,0,0,0,3-.93,3.25,3.25,0,0,0,1.1-2.62q0-2.93-3.85-2.93Zm0,8.6v7.22H68a4.79,4.79,0,0,0,3.21-1,3.33,3.33,0,0,0,1.15-2.69q0-3.56-4.85-3.55Z"/><path class="c" d="M93.53,10.05A3,3,0,0,0,92,9.67c-1.6,0-2.41,1-2.41,3v2.21H93v2H89.59V29.25H87.31V16.88H84.86v-2h2.45V12.59A4.81,4.81,0,0,1,88.61,9a4.41,4.41,0,0,1,3.25-1.31A4.7,4.7,0,0,1,93.53,8Z"/><path class="c" d="M98.43,29.25h-2.3V8h2.3Z"/><path class="c" d="M109.79,29.59a6.67,6.67,0,0,1-5.08-2,7.46,7.46,0,0,1-1.9-5.33,7.74,7.74,0,0,1,2-5.64,7.09,7.09,0,0,1,5.33-2,6.43,6.43,0,0,1,5,2,7.81,7.81,0,0,1,1.8,5.47,7.73,7.73,0,0,1-1.94,5.5A6.83,6.83,0,0,1,109.79,29.59ZM110,16.51a4.39,4.39,0,0,0-3.5,1.51,6.22,6.22,0,0,0-1.28,4.15,5.84,5.84,0,0,0,1.3,4A4.42,4.42,0,0,0,110,27.66a4.21,4.21,0,0,0,3.43-1.44,6.27,6.27,0,0,0,1.19-4.11A6.34,6.34,0,0,0,113.38,18,4.19,4.19,0,0,0,110,16.51Z"/><path class="c" d="M139.37,14.92l-4.3,14.33h-2.38L129.74,19a6.92,6.92,0,0,1-.23-1.33h0a6.26,6.26,0,0,1-.3,1.3L126,29.25h-2.3l-4.34-14.33h2.41l3,10.78a6.23,6.23,0,0,1,.19,1.29H125a5.64,5.64,0,0,1,.25-1.32l3.3-10.75h2.1l3,10.81a8.31,8.31,0,0,1,.21,1.28H134a6,6,0,0,1,.24-1.28l2.91-10.81Z"/><path class="d" d="M6.19,22.82,7.28,21.6l-3-5.29L7,14.78l.29.53L13.1,12l-.29-.53,2.27-1.28,1.06,1.9,1.07-1.22L15.66,8.1l-3.6,2-.47-.85a.4.4,0,0,0-.53-.15L10,9.76l-.4-.71A.2.2,0,0,0,9.3,9L6.64,10.48a.2.2,0,0,0-.08.27l.4.72-1.08.61a.38.38,0,0,0-.14.52l.47.85-4,2.28ZM8.88,10.05a1.14,1.14,0,1,1-1.13,1.14A1.14,1.14,0,0,1,8.88,10.05Z"/><path class="d" d="M19.88,15.56l-1.1,1.18,1,1.89a3.75,3.75,0,0,1-1.41,5.08h0L10.86,28l-.81-1.45L8.9,27.74l1.33,2.36,8.92-5.05h0a5.29,5.29,0,0,0,2-7.17Z"/><path class="d" d="M17.67,12.71a53.75,53.75,0,0,0-6,5.72c-1.79,1.88-6,7.57-6,7.57L3.31,23.55,2,25l3.89,4.22s5.46-6.81,6.53-8c1.48-1.6,5-5.28,6-6.28,3.2-3.23,6.59.35,4.23,3.75.1.08.23.31.32.4C25.94,14.9,22.18,9.81,17.67,12.71Z"/></g></svg>